# xmcd
#
# Track frame offsets: 
#        150
#        16722
#        33532
#        48790
#        61820
#        80497
#        91925
#        106265
#        125070
#        142092
#
# Disc length: 2157 seconds
#
# Revision: 7
# Processed by: cddbd v1.5.2PL0 Copyright (c) Steve Scherf et al.
# Submitted via: ExactAudioCopy v0.95b4
#
DISCID=7b086b0a
DTITLE=Righteous Brothers - Best Of Righteous Brothers
DYEAR=1900
DGENRE=Rock and Roll
TTITLE0=Unchained Melody
TTITLE1=You've Lost That Loving Feeling
TTITLE2=(You're My) Soul And Inspiration
TTITLE3=Ebbtide
TTITLE4=Just Once In My Life
TTITLE5=Little Latin Lupe Lu
TTITLE6=My Babe
TTITLE7=Try To Find Another Woman
TTITLE8=American Rock And Roll
TTITLE9=Georgia On My Mind
EXTD=
EXTT0=
EXTT1=
EXTT2=
EXTT3=
EXTT4=
EXTT5=
EXTT6=
EXTT7=
EXTT8=
EXTT9=
PLAYORDER=
